<svg xmlns="http://www.w3.org/2000/svg" width="30" height="30">
    <path fill-rule="evenodd" fill="#343434" d="M20.9 17.801c3.673-5.085 2.444-12.126-2.742-15.727-5.187-3.6-12.37-2.396-16.042 2.689-3.672 5.085-2.445 12.126 2.743 15.726a11.697 11.697 0 0 0 12.502.507l8.484 8.269a2.442 2.442 0 0 0 3.405.084 2.327 2.327 0 0 0 0-3.422l-8.35-8.126zm-9.399.771c-4.099 0-7.422-3.255-7.425-7.273 0-4.018 3.32-7.277 7.42-7.278 4.093-.002 7.415 3.248 7.422 7.261.007 4.02-3.311 7.283-7.412 7.29h-.005z"/>
</svg>
